<svg id="Слой_1" data-name="Слой 1" xmlns="http://www.w3.org/2000/svg" viewBox="0 0 535.75 535"><defs><style>.cls-1{fill:#2365ad;}</style></defs><title>logo-small</title><path class="cls-1" d="M513.56,341.85c-14.6,26.29-33,50.9-52.46,74-30.35,36-62.68,70.4-103.52,95.23-25.2,15.32-51.22,23.45-77.74,23.93a7.28,7.28,0,0,1-6.52-10.78c.18-.34.37-.66.55-1,32.1-57.11,64.46-114.06,96.29-171.3,22.37-40.26,27.76-83.34,14.84-127.27-11.94-40.6-52.27-61.44-92.95-50.53C274,179,261,191.29,253,207.45a367.92,367.92,0,0,0-20.16,51.3,64.83,64.83,0,0,1-6.84,16c-4,6.76-10.41,17.38-18.12,16.78-7-.56-12-10.17-13.58-16.78-1.37-5.78-.05-11,2.64-21.13.85-3.2,3.33-12.15,10.57-29.06,1.64-3.83,3.17-7.23,4.52-10.17a7.25,7.25,0,0,0-2.59-9c-13.16-8.77-25.91-17.54-39.25-25.31-2.2-1.26-9.46,2.35-11.65,5.55-14,20.66-18,44.62-20,68.73-1.91,23.35,0,46.6,10,68.39,10.46,23,28.36,36.67,53.43,39.84,28.5,3.59,52.94-4.07,67.36-30.62,8.32-15.29,14.05-32,20.71-48.18,4.15-10.12,6.53-21.29,12.36-30.27,3.25-5,12.23-9.38,18-8.72,4.89.58,11.49,8.19,12.82,13.76,4.94,20.71-2.09,40.05-11.81,57.88-36.24,66.35-73.09,132.36-109.73,198.51a7,7,0,0,1-6.1,3.59,6.87,6.87,0,0,1-2.85-.61c-6.26-2.77-12.66-5.41-18.36-9.11C125.16,470.44,72.83,424.4,31.28,367.1,10.38,338.31-2.56,305.43.43,269.71c3.11-37,14.92-72.27,37.27-102.88,11.15-15.27,21.95-31.09,35.05-44.57,28.79-29.55,57.48-59.56,89-86.06,31.06-26.07,68.47-40,110.1-35.31,33.1,3.7,64.48,13.92,92.13,33,47.63,33,90.66,71.24,127.56,116,23.27,28.21,40.23,59.62,43.59,97.08C538.18,281,529.62,313,513.56,341.85Z"/></svg>