<svg id="Слой_1" data-name="Слой 1" xmlns="http://www.w3.org/2000/svg" viewBox="0 0 1935 535"><defs><style>.cls-1{fill:#2365ad;}.cls-2{font-size:390px;fill:#333;font-family:Linotte-SemiBold, Linotte;font-weight:700;}.cls-3{letter-spacing:-0.01em;}</style></defs><title>logo-full</title><path class="cls-1" d="M513.71,341.85c-14.6,26.29-33,50.9-52.46,74-30.35,36-62.68,70.4-103.52,95.23C332.53,526.39,306.51,534.52,280,535a7.27,7.27,0,0,1-6.52-10.78c.18-.34.37-.66.55-1,32.1-57.11,64.46-114.06,96.29-171.3,22.37-40.26,27.76-83.34,14.84-127.27-11.94-40.6-52.27-61.44-92.95-50.53-18.1,4.86-31.09,17.17-39,33.33A366.64,366.64,0,0,0,233,258.75a64.83,64.83,0,0,1-6.84,16c-4,6.76-10.41,17.38-18.12,16.78-7-.56-12-10.17-13.58-16.78-1.37-5.78-.05-11,2.64-21.13.85-3.2,3.33-12.15,10.57-29.06,1.64-3.83,3.17-7.23,4.52-10.17a7.25,7.25,0,0,0-2.59-9c-13.16-8.77-25.92-17.54-39.26-25.31-2.19-1.26-9.45,2.35-11.64,5.55-14,20.66-18,44.62-20,68.73-1.91,23.35,0,46.6,10,68.39,10.46,23,28.37,36.67,53.44,39.84,28.5,3.59,52.94-4.07,67.36-30.62,8.32-15.29,14-32,20.71-48.18,4.15-10.12,6.52-21.29,12.36-30.27,3.25-5,12.23-9.38,18-8.72,4.89.58,11.49,8.19,12.81,13.76,4.94,20.71-2.08,40.05-11.8,57.88-36.24,66.35-73.09,132.36-109.73,198.51a7,7,0,0,1-9,3c-6.26-2.77-12.65-5.41-18.35-9.11C125.31,470.44,73,424.4,31.43,367.1,10.53,338.31-2.41,305.43.58,269.71c3.11-37,14.92-72.27,37.27-102.88C49,151.56,59.8,135.74,72.9,122.26c28.79-29.55,57.48-59.56,89-86.06C193,10.13,230.39-3.76,272,.89c33.09,3.7,64.47,13.92,92.13,33,47.63,33,90.66,71.24,127.56,116C515,178.13,531.94,209.54,535.29,247,538.33,281,529.77,313,513.71,341.85Z"/><text class="cls-2" transform="translate(663.36 359.96)">salep<tspan class="cls-3" x="922.72" y="0">r</tspan><tspan x="1061.95" y="0">o</tspan></text></svg>