<?xml version="1.0" standalone="no"?>
<!DOCTYPE svg PUBLIC "-//W3C//DTD SVG 20010904//EN"
 "http://www.w3.org/TR/2001/REC-SVG-20010904/DTD/svg10.dtd">
<svg version="1.0" xmlns="http://www.w3.org/2000/svg"
 width="2144.000000pt" height="2144.000000pt" viewBox="0 0 2144.000000 2144.000000"
 preserveAspectRatio="xMidYMid meet">
<metadata>
Created by potrace 1.11, written by Peter Selinger 2001-2013
</metadata>
<g transform="translate(0.000000,2144.000000) scale(0.100000,-0.100000)"
fill="#000000" stroke="none">
<path d="M9959 21416 c-2 -2 -51 -6 -109 -10 -58 -4 -118 -8 -135 -10 -16 -2
-57 -7 -90 -11 -239 -27 -447 -65 -694 -125 -120 -30 -249 -65 -281 -77 -8 -3
-22 -7 -31 -9 -29 -6 -330 -114 -409 -147 -41 -17 -77 -32 -80 -32 -3 -1 -27
-11 -54 -23 -27 -12 -51 -22 -53 -22 -8 0 -438 -212 -443 -219 -3 -3 -27 -18
-55 -32 -152 -79 -362 -211 -585 -368 -85 -60 -252 -185 -330 -247 -40 -32
-238 -198 -260 -218 -14 -12 -70 -60 -125 -106 -55 -47 -107 -92 -115 -100 -9
-8 -49 -44 -90 -80 -74 -64 -370 -331 -400 -360 -9 -8 -67 -62 -129 -120 -356
-330 -551 -519 -1151 -1120 -572 -572 -960 -967 -1455 -1482 -322 -335 -602
-685 -1110 -1388 -109 -151 -222 -306 -250 -345 -135 -184 -269 -385 -374
-560 -39 -66 -76 -127 -81 -135 -6 -8 -16 -26 -22 -40 -7 -14 -31 -56 -54 -95
-97 -168 -282 -555 -390 -820 -173 -424 -342 -981 -430 -1420 -2 -11 -6 -31
-9 -45 -8 -37 -13 -63 -19 -106 -4 -22 -8 -46 -11 -54 -2 -8 -7 -31 -9 -50 -3
-19 -7 -46 -10 -60 -3 -14 -7 -43 -11 -65 -3 -22 -8 -53 -11 -70 -3 -16 -6
-41 -8 -55 -3 -23 -11 -79 -22 -155 -2 -16 -6 -55 -9 -85 -3 -30 -8 -65 -10
-77 -2 -12 -6 -57 -10 -100 -4 -43 -8 -89 -10 -102 -24 -145 -23 -723 0 -896
2 -16 6 -55 9 -85 3 -30 8 -70 10 -88 3 -18 10 -68 16 -112 6 -44 18 -115 26
-157 9 -43 18 -94 21 -113 7 -47 68 -295 98 -400 49 -166 153 -470 166 -485 5
-5 9 -15 9 -22 0 -34 262 -602 334 -723 8 -14 39 -67 68 -119 29 -52 63 -110
75 -130 13 -20 26 -43 30 -51 16 -34 232 -368 276 -425 4 -5 41 -57 83 -115
41 -58 80 -112 87 -120 7 -8 34 -46 61 -85 28 -38 53 -72 56 -75 3 -3 33 -41
65 -85 33 -44 62 -82 65 -85 3 -3 28 -34 55 -70 122 -162 532 -664 666 -815
200 -227 361 -409 395 -445 23 -25 61 -65 84 -90 326 -351 963 -988 1158
-1158 32 -29 194 -176 216 -197 12 -11 59 -54 106 -94 46 -41 97 -86 114 -100
16 -14 34 -31 40 -37 9 -8 263 -227 346 -298 382 -325 1135 -908 1566 -1211
31 -22 102 -72 158 -112 55 -39 139 -98 186 -129 47 -32 129 -89 182 -126 54
-38 102 -68 107 -68 5 0 11 -3 13 -7 2 -6 120 -87 268 -183 8 -6 40 -27 70
-46 204 -135 320 -195 765 -394 100 -45 176 -51 257 -20 70 26 122 81 187 200
28 52 56 102 61 110 5 8 20 35 33 60 13 25 55 101 94 170 38 69 85 152 103
185 53 95 69 124 225 405 149 269 184 331 238 430 16 30 49 89 72 130 73 130
108 194 127 230 10 19 23 42 28 50 25 39 680 1225 685 1241 4 11 11 19 16 19
5 0 9 4 9 8 0 8 219 411 240 442 6 8 13 21 17 29 3 7 35 66 71 130 35 64 77
139 92 166 61 111 349 631 436 788 52 92 94 169 94 171 0 2 22 41 48 87 27 46
67 118 89 159 44 81 61 112 165 297 37 68 68 126 68 129 0 3 8 18 18 32 11 15
41 68 67 117 64 119 94 174 115 210 10 17 33 59 52 95 20 36 44 81 55 100 43
76 72 129 118 215 26 50 51 95 55 100 4 6 60 107 125 225 65 118 129 235 142
260 14 25 41 74 61 110 19 36 68 124 107 195 39 72 75 137 78 145 4 8 18 33
30 55 13 22 64 114 114 205 50 91 104 190 120 220 168 306 288 548 357 725 26
66 52 131 58 145 25 60 91 274 117 385 32 131 45 198 65 340 17 120 22 334 12
485 -11 158 -56 409 -79 438 -5 6 -7 12 -3 12 3 0 -10 30 -30 67 -93 177 -245
330 -387 393 -63 28 -176 28 -288 0 -84 -21 -279 -110 -333 -152 -62 -49 -140
-125 -166 -163 -90 -131 -214 -396 -289 -620 -116 -347 -278 -779 -372 -992
-11 -24 -19 -45 -19 -48 0 -9 -179 -459 -255 -641 -117 -282 -187 -434 -305
-669 -119 -235 -128 -251 -236 -415 -256 -386 -609 -676 -1023 -842 -73 -29
-242 -85 -278 -93 -10 -2 -48 -10 -86 -19 -37 -9 -79 -18 -95 -20 -56 -10 -88
-15 -132 -21 -25 -3 -61 -7 -80 -10 -130 -17 -468 -23 -590 -11 -30 3 -86 8
-125 11 -66 5 -119 11 -175 20 -14 2 -43 6 -65 10 -23 3 -52 8 -65 10 -14 3
-38 8 -55 10 -16 3 -57 12 -90 21 -33 8 -69 16 -80 18 -58 12 -213 63 -314
102 -176 69 -341 156 -490 258 -40 28 -88 61 -105 72 -64 44 -246 212 -331
305 -309 339 -550 791 -719 1350 -29 98 -77 283 -92 354 -45 226 -75 414 -89
575 -3 30 -7 75 -10 100 -24 251 -25 746 0 1060 2 30 7 91 10 135 3 44 8 96
10 115 2 19 7 64 10 100 3 36 7 76 10 90 2 14 7 52 10 85 5 57 15 132 20 165
2 8 6 40 10 70 5 46 25 170 51 325 3 17 11 59 19 95 8 36 17 76 19 90 19 112
94 388 155 570 115 344 315 754 477 980 85 119 332 253 433 235 28 -5 222
-115 386 -220 28 -17 127 -80 220 -140 261 -167 988 -652 1031 -689 53 -46 87
-117 92 -193 5 -70 -4 -102 -65 -232 -24 -51 -71 -157 -104 -235 -34 -77 -69
-159 -79 -181 -9 -22 -25 -62 -35 -90 -10 -27 -22 -55 -26 -60 -4 -6 -15 -33
-25 -60 -9 -28 -25 -68 -35 -90 -25 -57 -130 -348 -178 -495 -42 -131 -75
-244 -95 -327 -3 -10 -20 -81 -40 -158 -32 -128 -45 -190 -62 -300 -43 -270
80 -637 284 -849 205 -212 430 -196 665 49 131 136 365 498 460 711 40 91 60
138 64 149 6 20 63 180 64 180 0 0 2 7 4 16 18 91 254 784 325 954 4 11 41
103 81 205 39 102 83 209 95 238 13 29 24 55 24 57 0 5 141 323 194 438 143
309 281 551 396 693 102 127 198 233 279 308 25 23 52 48 62 57 9 9 58 48 110
88 52 39 99 75 104 79 68 52 270 162 405 219 80 34 259 97 310 108 8 2 65 15
125 29 98 22 234 47 336 61 204 27 610 27 798 -1 56 -8 203 -33 231 -39 14 -4
36 -8 50 -11 14 -3 33 -7 42 -10 9 -3 25 -7 36 -9 45 -8 176 -50 292 -92 589
-214 1094 -615 1432 -1138 147 -226 252 -446 338 -705 78 -233 167 -596 209
-850 6 -36 14 -78 17 -95 8 -42 42 -298 50 -370 3 -33 7 -76 10 -95 25 -223
25 -969 -1 -1132 -2 -13 -6 -54 -10 -91 -3 -37 -8 -76 -10 -85 -1 -9 -6 -44
-9 -77 -4 -33 -9 -67 -11 -75 -2 -8 -6 -35 -9 -60 -7 -52 -10 -69 -37 -210
-110 -580 -315 -1181 -593 -1740 -76 -151 -208 -401 -226 -425 -4 -5 -21 -35
-37 -65 -32 -58 -65 -118 -110 -198 -14 -26 -47 -85 -73 -132 -26 -47 -100
-179 -165 -295 -65 -115 -131 -235 -148 -265 -39 -72 -159 -285 -186 -330 -11
-19 -24 -42 -27 -50 -4 -8 -25 -46 -48 -85 -22 -38 -41 -72 -41 -75 0 -3 -8
-16 -16 -30 -13 -20 -200 -351 -327 -580 -49 -87 -65 -116 -127 -225 -34 -60
-76 -135 -92 -165 -17 -30 -98 -174 -180 -320 -82 -146 -165 -292 -183 -324
-18 -33 -55 -98 -81 -144 -27 -47 -49 -86 -49 -88 0 -2 -20 -38 -45 -80 -25
-41 -45 -78 -45 -80 0 -2 -10 -21 -23 -42 -13 -20 -41 -68 -62 -107 -35 -65
-158 -282 -310 -550 -35 -60 -72 -126 -82 -145 -25 -44 -312 -554 -451 -800
-57 -102 -126 -223 -152 -270 -26 -47 -57 -102 -69 -123 -42 -75 -58 -103 -91
-162 -18 -33 -36 -64 -40 -70 -4 -5 -21 -35 -37 -65 -43 -79 -80 -146 -123
-220 -50 -87 -122 -214 -156 -275 -52 -94 -111 -200 -170 -305 -94 -165 -98
-176 -98 -260 0 -58 5 -85 22 -121 33 -67 95 -125 161 -150 52 -20 68 -21 236
-15 99 4 194 8 210 10 17 2 64 7 105 11 41 3 86 8 100 10 14 2 49 7 79 10 30
4 62 8 72 10 9 2 39 6 66 10 208 29 565 112 821 191 158 49 371 124 439 155
23 10 46 19 50 19 4 1 26 9 48 20 22 11 44 19 48 20 4 0 36 13 70 29 34 15
105 48 157 71 149 68 503 252 531 276 8 8 19 14 22 14 14 0 322 189 513 316
256 169 651 452 724 517 8 7 33 27 55 43 22 16 42 31 45 34 3 3 64 52 135 110
72 57 132 107 135 110 3 3 26 22 52 43 26 21 53 43 60 50 7 7 45 39 83 72 308
264 543 484 904 845 263 263 448 456 674 704 45 49 93 101 106 115 12 14 51
57 85 95 33 38 72 81 86 96 14 15 38 43 54 61 57 66 161 184 166 189 3 3 30
34 60 70 30 36 60 70 65 76 6 6 33 37 60 69 28 32 55 63 60 69 6 6 27 31 47
56 20 25 48 59 63 75 14 17 35 40 46 53 37 43 354 428 384 466 17 21 40 50 53
65 61 71 525 672 572 742 8 12 24 34 36 48 18 22 276 387 327 461 197 289 355
534 515 800 141 234 141 233 149 250 4 8 30 56 58 105 90 157 305 572 305 589
0 2 16 40 36 83 20 43 56 128 81 188 24 61 48 119 53 130 27 62 167 465 176
509 2 11 10 40 18 65 18 54 105 395 111 431 2 14 10 57 18 95 9 39 18 86 21
105 3 19 8 46 11 60 12 60 15 78 21 130 3 30 7 57 9 60 2 3 6 37 10 75 4 39 9
77 10 85 10 51 19 155 32 355 14 210 6 817 -11 867 -3 7 -7 49 -10 93 -3 44
-8 90 -10 102 -3 12 -7 48 -11 80 -3 32 -10 83 -15 113 -6 30 -12 69 -14 85
-3 26 -15 91 -31 174 -47 245 -177 721 -225 826 -5 11 -16 40 -24 65 -17 53
-101 271 -121 316 -8 16 -29 66 -48 110 -88 205 -250 516 -397 764 -277 465
-573 871 -1029 1410 -135 159 -459 530 -481 550 -3 3 -48 52 -100 110 -52 58
-127 139 -166 180 -39 41 -106 113 -150 160 -136 145 -721 728 -893 890 -207
194 -210 197 -305 284 -44 39 -89 80 -100 91 -12 11 -57 52 -101 90 -44 39
-84 75 -90 81 -5 6 -44 39 -85 75 -41 35 -77 66 -80 69 -4 5 -178 155 -260
224 -182 154 -546 453 -629 516 -18 14 -38 30 -44 35 -7 6 -77 61 -157 124
-80 62 -152 118 -160 124 -85 68 -605 454 -744 552 -217 153 -285 201 -390
273 -67 46 -179 120 -251 164 -119 75 -157 97 -295 176 -249 142 -575 298
-880 420 -237 94 -353 135 -605 214 -147 45 -580 160 -650 172 -16 2 -82 16
-145 30 -64 13 -158 32 -210 41 -52 9 -106 18 -120 21 -22 4 -55 9 -190 28
-166 25 -310 42 -415 51 -38 4 -86 9 -105 11 -41 6 -715 16 -721 10z"/>
</g>
</svg>
